<svg height="300" viewBox="0 -5 512 512" width="300" xmlns="http://www.w3.org/2000/svg" version="1.1" xmlns:xlink="http://www.w3.org/1999/xlink" xmlns:svgjs="http://svgjs.dev/svgjs"><g width="100%" height="100%" transform="matrix(1,0,0,1,0,0)"><path d="m400.59375 37.136719c.683594.0625 1.355469-.191407 1.828125-.683594-7.527344-7.660156-17.300781-12.722656-27.902344-14.457031.699219 5.96875.234375 12.015625-1.371093 17.804687 8.253906-1.199219 17.390624-2.113281 27.445312-2.664062zm0 0" fill="#77894d" fill-opacity="1" data-original-color="#000000ff" stroke="none" stroke-opacity="1"/><path d="m361.519531 294.566406c-19.152343-12.265625-40.453125-20.796875-62.777343-25.136718.027343-1.726563-.222657-3.445313-.738282-5.089844l-26.269531-71.003906c46.382813-17.636719 76.679687-62.515626 75.695313-112.128907-.042969-5.570312-.476563-11.128906-1.300782-16.640625-.835937-5.800781.15625-11.71875 2.835938-16.933594l.109375-.171874c.664062-1.359376 1.4375-2.664063 2.304687-3.902344 4.929688-6.792969 6.503906-15.460938 4.277344-23.554688-2.640625-9.597656-10.308594-16.988281-19.996094-19.28125-2.136718-.484375-4.324218-.72656225-6.515625-.722656-5.519531-.0195312-10.910156 1.640625-15.460937 4.753906-6.273438 4.28125-10.5 10.964844-11.675782 18.46875-.941406 6.066406-3.988281 11.609375-8.605468 15.652344l-144.511719 127.523438c-4.261719 3.757812-8.902344 7.066406-13.839844 9.875l-89.152343 50.578124 3.527343.832032c9.277344 1.871094 18.910157.796875 27.546875-3.070313l83.574219-39.855469h.140625l.082031-.0625 109.074219-48.457031c7.460938-3.324219 13.234375-9.558593 15.972656-17.253906 2.742188-7.695313 2.207032-16.175781-1.472656-23.46875-1.460938-2.921875-1.25-6.402344.550781-9.128906 1.800781-2.726563 4.921875-4.285157 8.183594-4.089844 3.261719.199219 6.171875 2.121094 7.628906 5.046875 5.898438 11.761719 6.722657 25.429688 2.277344 37.816406-4.441406 12.390625-13.761719 22.417969-25.792969 27.753906l-90.859375 40.375c10.667969 4.042969 21.859375 6.527344 33.234375 7.378907-.078125.691406-.109375 1.386719-.09375 2.085937l7.753906 64.308594c-27.324218 3.351562-53.558593 12.746094-76.800781 27.503906 54.726563 25.164063 81.839844 87.398438 63.015625 144.609375 13.78125 1.597657 24.203125 13.234375 24.273438 27.109375v9.144532c0 5.046874 4.09375 9.140624 9.140625 9.140624h18.289062c5.046875 0 9.140625-4.09375 9.140625-9.140624v-9.144532c.066406-13.855468 10.457032-25.488281 24.21875-27.109375-18.824218-57.210937 8.289063-119.445312 63.015625-144.609375zm-107.886719-96.046875c.054688.570313.144532 1.140625.273438 1.699219l24.484375 66.195312c-7.4375-.808593-14.910156-1.234374-22.390625-1.269531-3.5 0-6.96875.179688-10.433594.347657 0-.085938 0-.15625 0-.238282l-7.777344-64.539062c5.304688-.398438 10.582032-1.128906 15.796876-2.195313zm11.511719 231.195313h-18.289062c-5.046875 0-9.140625-4.09375-9.140625-9.144532 0-5.046874 4.09375-9.140624 9.140625-9.140624h18.289062c5.046875 0 9.140625 4.09375 9.140625 9.140624 0 5.050782-4.09375 9.144532-9.140625 9.144532zm0-36.570313h-18.289062c-5.046875 0-9.140625-4.09375-9.140625-9.144531s4.09375-9.144531 9.140625-9.144531h18.289062c5.046875 0 9.140625 4.09375 9.140625 9.144531s-4.09375 9.144531-9.140625 9.144531zm-9.144531-36.574219c-20.199219 0-36.570312-16.371093-36.570312-36.570312s16.371093-36.570312 36.570312-36.570312 36.570312 16.371093 36.570312 36.570312-16.371093 36.570312-36.570312 36.570312zm0 0" fill="#77894d" fill-opacity="1" data-original-color="#000000ff" stroke="none" stroke-opacity="1"/><path d="m274.285156 320c0 10.097656-8.1875 18.285156-18.285156 18.285156s-18.285156-8.1875-18.285156-18.285156 8.1875-18.285156 18.285156-18.285156 18.285156 8.1875 18.285156 18.285156zm0 0" fill="#77894d" fill-opacity="1" data-original-color="#000000ff" stroke="none" stroke-opacity="1"/><path d="m100.570312 466.285156c35.347657 0 64-28.652344 64-64 0-35.34375-28.652343-64-64-64-35.34375 0-64 28.65625-64 64 .042969 35.332032 28.671876 63.960938 64 64zm27.429688-64c0-5.046875 4.09375-9.140625 9.144531-9.140625 5.046875 0 9.140625 4.09375 9.140625 9.140625-.03125 25.234375-20.480468 45.683594-45.714844 45.714844-5.046874 0-9.140624-4.09375-9.140624-9.144531 0-5.046875 4.09375-9.140625 9.140624-9.140625 15.148438 0 27.429688-12.28125 27.429688-27.429688zm-27.429688-45.714844c5.050782 0 9.144532 4.09375 9.144532 9.144532 0 5.050781-4.09375 9.140625-9.144532 9.140625-15.148437 0-27.425781 12.28125-27.425781 27.429687 0 5.050782-4.09375 9.144532-9.144531 9.144532s-9.144531-4.09375-9.144531-9.144532c.03125-25.234375 20.480469-45.683594 45.714843-45.714844zm0 0" fill="#77894d" fill-opacity="1" data-original-color="#000000ff" stroke="none" stroke-opacity="1"/><path d="m411.429688 338.285156c-35.347657 0-64 28.65625-64 64 0 35.347656 28.652343 64 64 64 35.34375 0 64-28.652344 64-64-.046876-35.328125-28.671876-63.953125-64-64zm-27.429688 64c0 5.050782-4.09375 9.144532-9.144531 9.144532-5.046875 0-9.140625-4.09375-9.140625-9.144532.03125-25.234375 20.480468-45.683594 45.714844-45.714844 5.046874 0 9.140624 4.09375 9.140624 9.144532 0 5.050781-4.09375 9.140625-9.140624 9.140625-15.148438 0-27.429688 12.28125-27.429688 27.429687zm27.429688 45.714844c-5.050782 0-9.144532-4.09375-9.144532-9.144531 0-5.046875 4.09375-9.140625 9.144532-9.140625 15.148437 0 27.425781-12.28125 27.425781-27.429688 0-5.046875 4.09375-9.140625 9.144531-9.140625s9.144531 4.09375 9.144531 9.140625c-.03125 25.234375-20.480469 45.683594-45.714843 45.714844zm0 0" fill="#77894d" fill-opacity="1" data-original-color="#000000ff" stroke="none" stroke-opacity="1"/><path d="m411.429688 301.714844c-55.546876 0-100.574219 45.027344-100.574219 100.570312 0 55.542969 45.027343 100.570313 100.574219 100.570313 55.542968 0 100.570312-45.027344 100.570312-100.570313-.066406-55.515625-45.054688-100.503906-100.570312-100.570312zm0 182.855468c-33.28125 0-63.285157-20.046874-76.023438-50.796874-12.734375-30.746094-5.695312-66.140626 17.835938-89.671876 23.535156-23.535156 58.925781-30.574218 89.675781-17.835937 30.746093 12.734375 50.796875 42.738281 50.796875 76.019531-.050782 45.425782-36.863282 82.234375-82.285156 82.285156zm0 0" fill="#77894d" fill-opacity="1" data-original-color="#000000ff" stroke="none" stroke-opacity="1"/><path d="m100.570312 502.855469c55.546876 0 100.574219-45.027344 100.574219-100.570313 0-55.542968-45.027343-100.570312-100.574219-100.570312-55.542968 0-100.570312 45.027344-100.570312 100.570312.0664062 55.519532 45.054688 100.507813 100.570312 100.570313zm0-182.855469c45.445313 0 82.285157 36.839844 82.285157 82.285156 0 45.445313-36.839844 82.285156-82.285157 82.285156-45.445312 0-82.285156-36.839843-82.285156-82.285156.050782-45.421875 36.863282-82.234375 82.285156-82.285156zm0 0" fill="#77894d" fill-opacity="1" data-original-color="#000000ff" stroke="none" stroke-opacity="1"/></g></svg>