<svg id="Capa_1" enable-background="new 0 0 512 512" height="300" viewBox="0 0 512 512" width="300" xmlns="http://www.w3.org/2000/svg" version="1.1" xmlns:xlink="http://www.w3.org/1999/xlink" xmlns:svgjs="http://svgjs.dev/svgjs"><g width="100%" height="100%" transform="matrix(1,0,0,1,0,0)"><g><path d="m315.18 103.804c0-21.685-17.644-39.326-39.332-39.326s-39.332 17.641-39.332 39.326c0 21.684 17.644 39.325 39.332 39.325 21.688-.001 39.332-17.642 39.332-39.325zm-63.631 0c0-13.396 10.9-24.295 24.299-24.295 13.398 0 24.298 10.899 24.298 24.295s-10.9 24.294-24.298 24.294-24.299-10.898-24.299-24.294z" fill="#77894d" fill-opacity="1" data-original-color="#000000ff" stroke="none" stroke-opacity="1"/><path d="m206.755 113.613c0-21.684-17.644-39.325-39.332-39.325s-39.332 17.641-39.332 39.325 17.644 39.325 39.332 39.325 39.332-17.641 39.332-39.325zm-63.63 0c0-13.396 10.9-24.294 24.299-24.294 13.398 0 24.299 10.898 24.299 24.294s-10.9 24.294-24.299 24.294c-13.399.001-24.299-10.897-24.299-24.294z" fill="#77894d" fill-opacity="1" data-original-color="#000000ff" stroke="none" stroke-opacity="1"/><path d="m98.64 154.845c-21.687 0-39.332 17.641-39.332 39.325s17.644 39.325 39.332 39.325 39.332-17.641 39.332-39.325-17.644-39.325-39.332-39.325zm0 63.619c-13.398 0-24.299-10.898-24.299-24.294s10.9-24.294 24.299-24.294 24.299 10.898 24.299 24.294-10.901 24.294-24.299 24.294z" fill="#77894d" fill-opacity="1" data-original-color="#000000ff" stroke="none" stroke-opacity="1"/><path d="m81.193 297.682c0 21.684 17.644 39.325 39.331 39.325s39.331-17.641 39.331-39.325-17.644-39.325-39.331-39.325-39.331 17.642-39.331 39.325zm63.63 0c0 13.396-10.9 24.294-24.299 24.294-13.398 0-24.298-10.898-24.298-24.294s10.9-24.294 24.298-24.294 24.299 10.898 24.299 24.294z" fill="#77894d" fill-opacity="1" data-original-color="#000000ff" stroke="none" stroke-opacity="1"/><path d="m321.911 412.724c0-21.684-17.644-39.325-39.332-39.325-21.687 0-39.331 17.641-39.331 39.325 0 21.685 17.644 39.326 39.331 39.326 21.688 0 39.332-17.641 39.332-39.326zm-63.63 0c0-13.396 10.9-24.294 24.298-24.294 13.399 0 24.299 10.898 24.299 24.294s-10.9 24.295-24.299 24.295c-13.398.001-24.298-10.898-24.298-24.295z" fill="#77894d" fill-opacity="1" data-original-color="#000000ff" stroke="none" stroke-opacity="1"/><path d="m422.41 380.915c0-21.684-17.644-39.325-39.332-39.325-21.687 0-39.332 17.641-39.332 39.325s17.644 39.325 39.332 39.325 39.332-17.642 39.332-39.325zm-63.63 0c0-13.396 10.9-24.294 24.298-24.294 13.399 0 24.299 10.898 24.299 24.294s-10.9 24.294-24.299 24.294c-13.398 0-24.298-10.898-24.298-24.294z" fill="#77894d" fill-opacity="1" data-original-color="#000000ff" stroke="none" stroke-opacity="1"/><path d="m462.308 124.325c-2.727 3.129-2.399 7.876.731 10.603 3.131 2.727 7.879 2.4 10.604-.731l30.667-35.202c10.798-12.394 10.15-31.207-1.474-42.83-11.624-11.622-30.44-12.269-42.837-1.474l-52.56 45.773c-16.425-41.748-49.956-70.931-102.178-88.996-44.127-15.265-97.842-15.292-147.369-.071-52.205 16.041-96.23 47.445-123.968 88.426-2.326 3.438-1.426 8.109 2.013 10.435 3.437 2.326 8.111 1.427 10.438-2.012 25.822-38.152 66.995-67.444 115.934-82.483 46.545-14.303 96.858-14.338 138.037-.092 49.855 17.245 80.972 45.194 94.98 85.34l-133.224 116.021c-.864.753-1.561 1.719-2.001 2.777l-18.094 43.433c-8.371-6.367-20.393-5.753-28.032 1.885-6.383 6.382-7.858 15.823-4.463 23.64-7.944 1.695-15.356 5.629-21.279 11.551-14.872 14.87-28.265 74.44-29.743 81.184-1.153 5.258 3.691 10.106 8.951 8.95 6.745-1.478 66.326-14.868 81.199-29.738 5.922-5.922 9.857-13.332 11.553-21.275 2.715 1.179 5.62 1.787 8.531 1.787 5.473 0 10.946-2.083 15.113-6.249 7.64-7.639 8.254-19.657 1.886-28.027l43.44-18.092c1.059-.44 2.024-1.137 2.778-2.002l69.284-79.53c-1.66 12.908-3.981 26.931-7.011 42.361-4.185 21.315 12.075 35.791 29.29 51.119 13.095 11.658 26.635 23.714 34.071 40.152 8.405 18.58 7.254 40.082-3.517 65.738-12.314 29.33-44.124 54.21-87.275 68.257-3.744 1.22-5.944 5.264-4.938 9.069 1.088 4.116 5.542 6.542 9.593 5.224 47.309-15.402 82.475-43.37 96.482-76.732 28.203-67.177-7.991-99.403-34.418-122.932-16.783-14.943-26.946-24.724-24.536-37 4.857-24.735 7.946-46.019 9.434-64.97l35.492-40.741c2.727-3.129 2.399-7.876-.731-10.603-3.13-2.726-7.878-2.399-10.605.731l-116.66 133.913-47.845-47.836 191.822-167.052c6.462-5.629 16.273-5.291 22.333.769 6.06 6.059 6.398 15.867.769 22.329zm-224.299 235.761c-7.544 7.543-38.383 17.051-62.091 22.94 5.889-23.704 15.4-54.537 22.944-62.08 6.021-6.02 14.411-8.891 22.803-7.908l24.252 24.248c.984 8.389-1.886 16.78-7.908 22.8zm35.197-25.738c-2.472 2.472-6.494 2.472-8.966 0l-39.636-39.629c-2.472-2.471-2.472-6.493 0-8.964 2.441-2.441 6.526-2.441 8.966 0l39.636 39.629c2.472 2.472 2.472 6.494 0 8.964zm1.237-28.983-20.85-20.846 16.069-38.569 43.357 43.35z" fill="#77894d" fill-opacity="1" data-original-color="#000000ff" stroke="none" stroke-opacity="1"/><path d="m338.546 492.22c-54.206 10.496-111.669 3.482-161.806-19.75-59.199-27.43-105.789-76.679-134.734-142.423-16.928-38.45-26.003-75.421-26.973-109.885-.879-31.251 4.883-60.459 17.126-86.812 1.749-3.764.115-8.232-3.65-9.981-3.765-1.75-8.234-.114-9.984 3.65-27.654 59.525-24.293 131.825 9.722 209.083 30.441 69.143 79.603 121.014 142.172 150.005 36.921 17.108 77.603 25.893 118.261 25.893 17.683 0 35.362-1.663 52.724-5.024 4.076-.789 6.74-4.732 5.951-8.807-.79-4.075-4.738-6.736-8.809-5.949z" fill="#77894d" fill-opacity="1" data-original-color="#000000ff" stroke="none" stroke-opacity="1"/></g></g></svg>