<svg id="Layer_1" enable-background="new 0 0 512 512" viewBox="0 0 512 512" xmlns="http://www.w3.org/2000/svg" width="300" height="300" version="1.1" xmlns:xlink="http://www.w3.org/1999/xlink" xmlns:svgjs="http://svgjs.dev/svgjs"><g width="100%" height="100%" transform="matrix(1,0,0,1,0,0)"><g><g><path d="m281 486.9h-50c-18.7 0-34.1-14-36.5-32.1h-189.3c-2.6 0-4.7-2.1-4.7-4.7v-40.5c0-2.6 2.1-4.7 4.7-4.7h224.8c6.1 0 6.3 9.4 0 9.4h-220.1v31h189c2.6 0 4.7 2.1 4.7 4.7 0 15.1 12.3 27.3 27.3 27.3h50.1c15.1 0 27.3-12.3 27.3-27.3 0-2.6 2.1-4.7 4.7-4.7h189v-31h-220c-6.1 0-6.3-9.4 0-9.4h224.8c2.6 0 4.7 2.1 4.7 4.7v40.5c0 2.6-2.1 4.7-4.7 4.7h-189.3c-2.3 18.1-17.8 32.1-36.5 32.1z" fill="#77894d" fill-opacity="1" data-original-color="#000000ff" stroke="none" stroke-opacity="1"/></g><g><path d="m269.8 449.8h-27.6c-9.3 0-16.9-7.6-16.9-16.9v-18.5h-192.4c-2.6 0-4.7-2.1-4.7-4.7v-47.4c0-2.6 2.1-4.7 4.7-4.7h174.8c26.2 0 41.2 17.4 48.3 27 7-9.6 22.1-27 48.3-27h44c6.1 0 6.2 9.4 0 9.4h-44c-24.5 0-37.3 18.2-42.8 26-1.6 2.2-2.7 4.3-5.5 4.3-3 .2-4.7-3.2-5.8-4.8-4.2-8-22.9-27.1-42.5-25.6-3.3 0-170 0-170 0v38h192.3c2.6 0 4.7 2.1 4.7 4.7v23.2c0 4.1 3.4 7.5 7.5 7.5h27.6c4.1 0 7.5-3.4 7.5-7.5v-23.2c0-2.6 2.1-4.7 4.7-4.7h192.3v-38h-81.3c-2.6 0-4.7-2.1-4.7-4.7s2.1-4.7 4.7-4.7h86.1c2.6 0 4.7 2.1 4.7 4.7v47.4c0 2.6-2.1 4.7-4.7 4.7h-192.4v18.5c0 9.4-7.6 17-16.9 17z" fill="#77894d" fill-opacity="1" data-original-color="#000000ff" stroke="none" stroke-opacity="1"/></g><g><path d="m249.8 293.6c-3 0-6-.9-8.5-2.7l-66.3-46.4c-1-.7-1.9-1-3.1-1h-50.3c-6.1 0-6.2-9.4 0-9.4h50.3c3.1 0 5.9.9 8.5 2.7l66.4 46.5c3.4 2.5 8.6-.2 8.4-4.4v-29.9c0-8.2 6.7-14.8 14.8-14.8h19.7c2.6 0 4.7 2.1 4.7 4.7s-2.1 4.7-4.7 4.7h-19.7c-3 0-5.4 2.4-5.4 5.4v29.9c.2 7.9-6.8 14.9-14.8 14.7zm-159.9-55.4c-18.2-6.9-29.3-26.4-29.3-45.4v-116.9c0-28 22.8-50.8 50.8-50.8h189.5c28 0 50.8 22.8 50.8 50.8v78.8c0 2.6-2.1 4.7-4.7 4.7s-4.7-2.1-4.7-4.7v-78.9c0-22.8-18.5-41.3-41.3-41.3h-189.6c-22.8 0-41.3 18.5-41.3 41.3v116.9c0 15.3 8.5 29.3 22.1 36.5 4.3 2.2 2.4 9.2-2.3 9z" fill="#77894d" fill-opacity="1" data-original-color="#000000ff" stroke="none" stroke-opacity="1"/></g><g><path d="m206.1 198.2h-83.6c-2.6 0-4.7-2.1-4.7-4.7v-121.9c0-2.6 2.1-4.7 4.7-4.7h59.5c15.9 0 28.8 12.9 28.8 28.8v97.8c.1 2.6-2.1 4.7-4.7 4.7zm-78.9-9.4h74.2v-93.1c0-10.7-8.7-19.3-19.3-19.3h-54.8v112.4z" fill="#77894d" fill-opacity="1" data-original-color="#000000ff" stroke="none" stroke-opacity="1"/></g><g><path d="m289.7 198.2h-83.6c-2.6 0-4.7-2.1-4.7-4.7v-97.8c0-15.9 12.9-28.8 28.8-28.8h59.5c2.6 0 4.7 2.1 4.7 4.7v121.9c.1 2.6-2.1 4.7-4.7 4.7zm-78.8-9.4h74.1v-112.4h-54.8c-10.7 0-19.3 8.7-19.3 19.3z" fill="#77894d" fill-opacity="1" data-original-color="#000000ff" stroke="none" stroke-opacity="1"/></g><g><path d="m343.9 303.8c-5.5.1-10.5-4.7-10.4-10.4v-16.7c0-.5-.4-.9-.9-.9h-17.2c-16.8 0-30.4-13.6-30.4-30.4v-65.2c0-16.8 13.6-30.4 30.4-30.4h105.6c16.8 0 30.4 13.6 30.4 30.4v65.2c0 16.7-13.6 30.4-30.4 30.4h-33.7l-37.5 26c-1.8 1.4-3.9 2-5.9 2zm-1-10.4 1.4.7 37-25.9c1.8-1.2 3.8-1.9 5.9-1.9h33.8c11.5 0 20.9-9.4 20.9-20.9v-65.2c0-11.5-9.4-20.9-20.9-20.9h-105.6c-11.5 0-20.9 9.4-20.9 20.9v65.2c0 11.5 9.4 20.9 20.9 20.9h17.2c5.7 0 10.4 4.6 10.4 10.4v16.7z" fill="#77894d" fill-opacity="1" data-original-color="#000000ff" stroke="none" stroke-opacity="1"/></g><g><path d="m406.4 201.1h-76.3c-6.2 0-6.2-9.4 0-9.4h76.3c6.1 0 6.2 9.4 0 9.4z" fill="#77894d" fill-opacity="1" data-original-color="#000000ff" stroke="none" stroke-opacity="1"/></g><g><path d="m406.4 234.2h-76.3c-6.2 0-6.2-9.4 0-9.4h76.3c6.1-.1 6.2 9.3 0 9.4z" fill="#77894d" fill-opacity="1" data-original-color="#000000ff" stroke="none" stroke-opacity="1"/></g></g></g></svg>